<?xml version="1.0" encoding="us-ascii" standalone="no"?><svg xmlns="http://www.w3.org/2000/svg" xmlns:xlink="http://www.w3.org/1999/xlink" contentStyleType="text/css" height="1637px" preserveAspectRatio="none" style="width:4019px;height:1637px;background:#FFFFFF;" version="1.1" viewBox="0 0 4019 1637" width="4019px" zoomAndPan="magnify"><defs/><g><!--class QRcode--><g id="elem_QRcode"><rect codeLine="3" fill="#F1F1F1" height="520.6094" id="QRcode" rx="2.5" ry="2.5" style="stroke:#181818;stroke-width:0.5;" width="338" x="283" y="713"/><ellipse cx="419.25" cy="729" fill="#ADD1B2" rx="11" ry="11" style="stroke:#181818;stroke-width:1.0;"/><path d="M421.5938,724.6719 C420.6563,724.2344 420.0625,724.0938 419.1875,724.0938 C416.5625,724.0938 414.5625,726.1719 414.5625,728.8906 L414.5625,730.0156 C414.5625,732.5938 416.6719,734.4844 419.5625,734.4844 C420.7813,734.4844 421.9375,734.1875 422.6875,733.6406 C423.2656,733.2344 423.5938,732.7813 423.5938,732.3906 C423.5938,731.9375 423.2031,731.5469 422.7344,731.5469 C422.5156,731.5469 422.3125,731.625 422.125,731.8125 C421.6719,732.2969 421.6719,732.2969 421.4844,732.3906 C421.0625,732.6563 420.375,732.7813 419.6094,732.7813 C417.5625,732.7813 416.2656,731.6875 416.2656,729.9844 L416.2656,728.8906 C416.2656,727.1094 417.5156,725.7969 419.25,725.7969 C419.8281,725.7969 420.4375,725.9531 420.9063,726.2031 C421.3906,726.4844 421.5625,726.7031 421.6563,727.1094 C421.7188,727.5156 421.75,727.6406 421.8906,727.7656 C422.0313,727.9063 422.2656,728.0156 422.4844,728.0156 C422.75,728.0156 423.0156,727.875 423.1875,727.6563 C423.2969,727.5 423.3281,727.3125 423.3281,726.8906 L423.3281,725.4688 C423.3281,725.0313 423.3125,724.9063 423.2188,724.75 C423.0625,724.4844 422.7813,724.3438 422.4844,724.3438 C422.1875,724.3438 421.9844,724.4375 421.7656,724.75 L421.5938,724.6719 Z " fill="#000000"/><ellipse cx="439.75" cy="728.5" fill="#84BE84" rx="-2" ry="-2" style="stroke:#038048;stroke-width:1.0;"/><text fill="#000000" font-family="sans-serif" font-size="14" lengthAdjust="spacing" textLength="56" x="440.75" y="733.8467">QRcode</text><line style="stroke:#181818;stroke-width:0.5;" x1="284" x2="620" y1="745" y2="745"/><text fill="#000000" font-family="sans-serif" font-size="14" lengthAdjust="spacing" textLength="81" x="289" y="761.9951">-url : String</text><text fill="#000000" font-family="sans-serif" font-size="14" lengthAdjust="spacing" textLength="163" x="289" y="778.292">-qrCodeIV : ImageView</text><text fill="#000000" font-family="sans-serif" font-size="14" lengthAdjust="spacing" textLength="119" x="289" y="794.5889">-qrName : String</text><text fill="#000000" font-family="sans-serif" font-size="14" lengthAdjust="spacing" textLength="98" x="289" y="810.8857">-qrVR : String</text><text fill="#000000" font-family="sans-serif" font-size="14" lengthAdjust="spacing" textLength="80" x="289" y="827.1826">-Score : int</text><text fill="#000000" font-family="sans-serif" font-size="14" lengthAdjust="spacing" textLength="119" x="289" y="843.4795">-latitude : String</text><text fill="#000000" font-family="sans-serif" font-size="14" lengthAdjust="spacing" textLength="131" x="289" y="859.7764">-longitude : String</text><text fill="#000000" font-family="sans-serif" font-size="14" lengthAdjust="spacing" textLength="116" x="289" y="876.0732">-image : Bitmap</text><text fill="#000000" font-family="sans-serif" font-size="14" lengthAdjust="spacing" textLength="118" x="289" y="892.3701">-SHA256 : String</text><line style="stroke:#181818;stroke-width:0.5;" x1="284" x2="620" y1="899.6719" y2="899.6719"/><text fill="#000000" font-family="sans-serif" font-size="14" lengthAdjust="spacing" textLength="158" x="289" y="916.667">+getSHA256() : String</text><text fill="#000000" font-family="sans-serif" font-size="14" lengthAdjust="spacing" textLength="326" x="289" y="932.9639">+QRcode(URL : String, qrCodeIV : ImageView)</text><text fill="#000000" font-family="sans-serif" font-size="14" lengthAdjust="spacing" textLength="161" x="289" y="949.2607">+QRcode(URL : String)</text><text fill="#000000" font-family="sans-serif" font-size="14" lengthAdjust="spacing" textLength="163" x="289" y="965.5576">+setImageview() : void</text><text fill="#000000" font-family="sans-serif" font-size="14" lengthAdjust="spacing" textLength="213" x="289" y="981.8545">+getImageview() : ImageView</text><text fill="#000000" font-family="sans-serif" font-size="14" lengthAdjust="spacing" textLength="143" x="289" y="998.1514">+setqrName() : void</text><text fill="#000000" font-family="sans-serif" font-size="14" lengthAdjust="spacing" textLength="159" x="289" y="1014.4482">+getqrName() : String</text><text fill="#000000" font-family="sans-serif" font-size="14" lengthAdjust="spacing" textLength="124" x="289" y="1030.7451">+setQrVR() : void</text><text fill="#000000" font-family="sans-serif" font-size="14" lengthAdjust="spacing" textLength="140" x="289" y="1047.042">+getQrVR() : String</text><text fill="#000000" font-family="sans-serif" font-size="14" lengthAdjust="spacing" textLength="128" x="289" y="1063.3389">+setScore() : void</text><text fill="#000000" font-family="sans-serif" font-size="14" lengthAdjust="spacing" textLength="142" x="289" y="1079.6357">+setSHA256() : void</text><text fill="#000000" font-family="sans-serif" font-size="14" lengthAdjust="spacing" textLength="248" x="289" y="1095.9326">+convertScore(c : char, l : int) : int</text><text fill="#000000" font-family="sans-serif" font-size="14" lengthAdjust="spacing" textLength="135" x="289" y="1112.2295">+getqrScore() : int</text><text fill="#000000" font-family="sans-serif" font-size="14" lengthAdjust="spacing" textLength="112" x="289" y="1128.5264">+gethash() : int</text><text fill="#000000" font-family="sans-serif" font-size="14" lengthAdjust="spacing" textLength="316" x="289" y="1144.8232">+setLocation(lat : String, lon : String ) : void</text><text fill="#000000" font-family="sans-serif" font-size="14" lengthAdjust="spacing" textLength="163" x="289" y="1161.1201">+getLatitude() : String</text><text fill="#000000" font-family="sans-serif" font-size="14" lengthAdjust="spacing" textLength="175" x="289" y="1177.417">+getLongitude() : String</text><text fill="#000000" font-family="sans-serif" font-size="14" lengthAdjust="spacing" textLength="241" x="289" y="1193.7139">+setImage(image : Bitmap) : void</text><text fill="#000000" font-family="sans-serif" font-size="14" lengthAdjust="spacing" textLength="133" x="289" y="1210.0107">+getImage() : void</text><text fill="#000000" font-family="sans-serif" font-size="14" lengthAdjust="spacing" textLength="267" x="289" y="1226.3076">+toMap() : HashMap&lt;String, Object&gt;</text></g><!--class CollectionActivity--><g id="elem_CollectionActivity"><rect codeLine="34" fill="#F1F1F1" height="129.4844" id="CollectionActivity" rx="2.5" ry="2.5" style="stroke:#181818;stroke-width:0.5;" width="543" x="3101.5" y="909"/><ellipse cx="3303.75" cy="925" fill="#ADD1B2" rx="11" ry="11" style="stroke:#181818;stroke-width:1.0;"/><path d="M3306.0938,920.6719 C3305.1563,920.2344 3304.5625,920.0938 3303.6875,920.0938 C3301.0625,920.0938 3299.0625,922.1719 3299.0625,924.8906 L3299.0625,926.0156 C3299.0625,928.5938 3301.1719,930.4844 3304.0625,930.4844 C3305.2813,930.4844 3306.4375,930.1875 3307.1875,929.6406 C3307.7656,929.2344 3308.0938,928.7813 3308.0938,928.3906 C3308.0938,927.9375 3307.7031,927.5469 3307.2344,927.5469 C3307.0156,927.5469 3306.8125,927.625 3306.625,927.8125 C3306.1719,928.2969 3306.1719,928.2969 3305.9844,928.3906 C3305.5625,928.6563 3304.875,928.7813 3304.1094,928.7813 C3302.0625,928.7813 3300.7656,927.6875 3300.7656,925.9844 L3300.7656,924.8906 C3300.7656,923.1094 3302.0156,921.7969 3303.75,921.7969 C3304.3281,921.7969 3304.9375,921.9531 3305.4063,922.2031 C3305.8906,922.4844 3306.0625,922.7031 3306.1563,923.1094 C3306.2188,923.5156 3306.25,923.6406 3306.3906,923.7656 C3306.5313,923.9063 3306.7656,924.0156 3306.9844,924.0156 C3307.25,924.0156 3307.5156,923.875 3307.6875,923.6563 C3307.7969,923.5 3307.8281,923.3125 3307.8281,922.8906 L3307.8281,921.4688 C3307.8281,921.0313 3307.8125,920.9063 3307.7188,920.75 C3307.5625,920.4844 3307.2813,920.3438 3306.9844,920.3438 C3306.6875,920.3438 3306.4844,920.4375 3306.2656,920.75 L3306.0938,920.6719 Z " fill="#000000"/><ellipse cx="3324.25" cy="924.5" fill="#84BE84" rx="-2" ry="-2" style="stroke:#038048;stroke-width:1.0;"/><text fill="#000000" font-family="sans-serif" font-size="14" lengthAdjust="spacing" textLength="129" x="3325.25" y="929.8467">CollectionActivity</text><line style="stroke:#181818;stroke-width:0.5;" x1="3102.5" x2="3643.5" y1="941" y2="941"/><text fill="#000000" font-family="sans-serif" font-size="14" lengthAdjust="spacing" text-decoration="underline" textLength="101" x="3107.5" y="957.9951">-REQUEST: int</text><text fill="#000000" font-family="sans-serif" font-size="14" lengthAdjust="spacing" textLength="122" x="3107.5" y="974.292">handler : Handler</text><line style="stroke:#181818;stroke-width:0.5;" x1="3102.5" x2="3643.5" y1="981.5938" y2="981.5938"/><text fill="#000000" font-family="sans-serif" font-size="14" lengthAdjust="spacing" textLength="336" x="3107.5" y="998.5889">#onCreate(savedInstanceState : Bundle) : void</text><text fill="#000000" font-family="sans-serif" font-size="14" lengthAdjust="spacing" textLength="531" x="3107.5" y="1014.8857">#onActivityResult(requestCode : int, resultCode : int, data : Intent) &#65306;void</text><text fill="#000000" font-family="sans-serif" font-size="14" lengthAdjust="spacing" textLength="240" x="3107.5" y="1031.1826">+updateDatabase() : Task&lt;Void&gt;</text></g><!--class CommentActivity--><g id="elem_CommentActivity"><rect codeLine="41" fill="#F1F1F1" height="113.1875" id="CommentActivity" rx="2.5" ry="2.5" style="stroke:#181818;stroke-width:0.5;" width="715" x="3015.5" y="1517"/><ellipse cx="3304.25" cy="1533" fill="#ADD1B2" rx="11" ry="11" style="stroke:#181818;stroke-width:1.0;"/><path d="M3306.5938,1528.6719 C3305.6563,1528.2344 3305.0625,1528.0938 3304.1875,1528.0938 C3301.5625,1528.0938 3299.5625,1530.1719 3299.5625,1532.8906 L3299.5625,1534.0156 C3299.5625,1536.5938 3301.6719,1538.4844 3304.5625,1538.4844 C3305.7813,1538.4844 3306.9375,1538.1875 3307.6875,1537.6406 C3308.2656,1537.2344 3308.5938,1536.7813 3308.5938,1536.3906 C3308.5938,1535.9375 3308.2031,1535.5469 3307.7344,1535.5469 C3307.5156,1535.5469 3307.3125,1535.625 3307.125,1535.8125 C3306.6719,1536.2969 3306.6719,1536.2969 3306.4844,1536.3906 C3306.0625,1536.6563 3305.375,1536.7813 3304.6094,1536.7813 C3302.5625,1536.7813 3301.2656,1535.6875 3301.2656,1533.9844 L3301.2656,1532.8906 C3301.2656,1531.1094 3302.5156,1529.7969 3304.25,1529.7969 C3304.8281,1529.7969 3305.4375,1529.9531 3305.9063,1530.2031 C3306.3906,1530.4844 3306.5625,1530.7031 3306.6563,1531.1094 C3306.7188,1531.5156 3306.75,1531.6406 3306.8906,1531.7656 C3307.0313,1531.9063 3307.2656,1532.0156 3307.4844,1532.0156 C3307.75,1532.0156 3308.0156,1531.875 3308.1875,1531.6563 C3308.2969,1531.5 3308.3281,1531.3125 3308.3281,1530.8906 L3308.3281,1529.4688 C3308.3281,1529.0313 3308.3125,1528.9063 3308.2188,1528.75 C3308.0625,1528.4844 3307.7813,1528.3438 3307.4844,1528.3438 C3307.1875,1528.3438 3306.9844,1528.4375 3306.7656,1528.75 L3306.5938,1528.6719 Z " fill="#000000"/><ellipse cx="3324.75" cy="1532.5" fill="#84BE84" rx="-2" ry="-2" style="stroke:#038048;stroke-width:1.0;"/><text fill="#000000" font-family="sans-serif" font-size="14" lengthAdjust="spacing" textLength="128" x="3325.75" y="1537.8467">CommentActivity</text><line style="stroke:#181818;stroke-width:0.5;" x1="3016.5" x2="3729.5" y1="1549" y2="1549"/><text fill="#000000" font-family="sans-serif" font-size="14" lengthAdjust="spacing" textLength="158" x="3021.5" y="1565.9951">db : FirebaseFirestore</text><text fill="#000000" font-family="sans-serif" font-size="14" lengthAdjust="spacing" textLength="204" x="3021.5" y="1582.292">qeRef : CollectionReference</text><line style="stroke:#181818;stroke-width:0.5;" x1="3016.5" x2="3729.5" y1="1589.5938" y2="1589.5938"/><text fill="#000000" font-family="sans-serif" font-size="14" lengthAdjust="spacing" textLength="336" x="3021.5" y="1606.5889">#onCreate(savedInstanceState : Bundle) : void</text><text fill="#000000" font-family="sans-serif" font-size="14" lengthAdjust="spacing" textLength="703" x="3021.5" y="1622.8857">+addToUserCommentCollection(qrRef : CollectionReference, id :  String,comment : String) &#65306;void</text></g><!--class FriendPageActivity--><g id="elem_FriendPageActivity"><rect codeLine="48" fill="#F1F1F1" height="80.5938" id="FriendPageActivity" rx="2.5" ry="2.5" style="stroke:#181818;stroke-width:0.5;" width="348" x="3466" y="368"/><ellipse cx="3567.25" cy="384" fill="#ADD1B2" rx="11" ry="11" style="stroke:#181818;stroke-width:1.0;"/><path d="M3569.5938,379.6719 C3568.6563,379.2344 3568.0625,379.0938 3567.1875,379.0938 C3564.5625,379.0938 3562.5625,381.1719 3562.5625,383.8906 L3562.5625,385.0156 C3562.5625,387.5938 3564.6719,389.4844 3567.5625,389.4844 C3568.7813,389.4844 3569.9375,389.1875 3570.6875,388.6406 C3571.2656,388.2344 3571.5938,387.7813 3571.5938,387.3906 C3571.5938,386.9375 3571.2031,386.5469 3570.7344,386.5469 C3570.5156,386.5469 3570.3125,386.625 3570.125,386.8125 C3569.6719,387.2969 3569.6719,387.2969 3569.4844,387.3906 C3569.0625,387.6563 3568.375,387.7813 3567.6094,387.7813 C3565.5625,387.7813 3564.2656,386.6875 3564.2656,384.9844 L3564.2656,383.8906 C3564.2656,382.1094 3565.5156,380.7969 3567.25,380.7969 C3567.8281,380.7969 3568.4375,380.9531 3568.9063,381.2031 C3569.3906,381.4844 3569.5625,381.7031 3569.6563,382.1094 C3569.7188,382.5156 3569.75,382.6406 3569.8906,382.7656 C3570.0313,382.9063 3570.2656,383.0156 3570.4844,383.0156 C3570.75,383.0156 3571.0156,382.875 3571.1875,382.6563 C3571.2969,382.5 3571.3281,382.3125 3571.3281,381.8906 L3571.3281,380.4688 C3571.3281,380.0313 3571.3125,379.9063 3571.2188,379.75 C3571.0625,379.4844 3570.7813,379.3438 3570.4844,379.3438 C3570.1875,379.3438 3569.9844,379.4375 3569.7656,379.75 L3569.5938,379.6719 Z " fill="#000000"/><ellipse cx="3587.75" cy="383.5" fill="#84BE84" rx="-2" ry="-2" style="stroke:#038048;stroke-width:1.0;"/><text fill="#000000" font-family="sans-serif" font-size="14" lengthAdjust="spacing" textLength="136" x="3588.75" y="388.8467">FriendPageActivity</text><line style="stroke:#181818;stroke-width:0.5;" x1="3467" x2="3813" y1="400" y2="400"/><line style="stroke:#181818;stroke-width:0.5;" x1="3467" x2="3813" y1="408" y2="408"/><text fill="#000000" font-family="sans-serif" font-size="14" lengthAdjust="spacing" textLength="336" x="3472" y="424.9951">#onCreate(savedInstanceState : Bundle) : void</text><text fill="#000000" font-family="sans-serif" font-size="14" lengthAdjust="spacing" textLength="240" x="3472" y="441.292">+updateDatabase() : Task&lt;Void&gt;</text></g><!--class MainActivity--><g id="elem_MainActivity"><rect codeLine="53" fill="#F1F1F1" height="96.8906" id="MainActivity" rx="2.5" ry="2.5" style="stroke:#181818;stroke-width:0.5;" width="348" x="2489" y="7"/><ellipse cx="2613.75" cy="23" fill="#ADD1B2" rx="11" ry="11" style="stroke:#181818;stroke-width:1.0;"/><path d="M2616.0938,18.6719 C2615.1563,18.2344 2614.5625,18.0938 2613.6875,18.0938 C2611.0625,18.0938 2609.0625,20.1719 2609.0625,22.8906 L2609.0625,24.0156 C2609.0625,26.5938 2611.1719,28.4844 2614.0625,28.4844 C2615.2813,28.4844 2616.4375,28.1875 2617.1875,27.6406 C2617.7656,27.2344 2618.0938,26.7813 2618.0938,26.3906 C2618.0938,25.9375 2617.7031,25.5469 2617.2344,25.5469 C2617.0156,25.5469 2616.8125,25.625 2616.625,25.8125 C2616.1719,26.2969 2616.1719,26.2969 2615.9844,26.3906 C2615.5625,26.6563 2614.875,26.7813 2614.1094,26.7813 C2612.0625,26.7813 2610.7656,25.6875 2610.7656,23.9844 L2610.7656,22.8906 C2610.7656,21.1094 2612.0156,19.7969 2613.75,19.7969 C2614.3281,19.7969 2614.9375,19.9531 2615.4063,20.2031 C2615.8906,20.4844 2616.0625,20.7031 2616.1563,21.1094 C2616.2188,21.5156 2616.25,21.6406 2616.3906,21.7656 C2616.5313,21.9063 2616.7656,22.0156 2616.9844,22.0156 C2617.25,22.0156 2617.5156,21.875 2617.6875,21.6563 C2617.7969,21.5 2617.8281,21.3125 2617.8281,20.8906 L2617.8281,19.4688 C2617.8281,19.0313 2617.8125,18.9063 2617.7188,18.75 C2617.5625,18.4844 2617.2813,18.3438 2616.9844,18.3438 C2616.6875,18.3438 2616.4844,18.4375 2616.2656,18.75 L2616.0938,18.6719 Z " fill="#000000"/><ellipse cx="2634.25" cy="22.5" fill="#84BE84" rx="-2" ry="-2" style="stroke:#038048;stroke-width:1.0;"/><text fill="#000000" font-family="sans-serif" font-size="14" lengthAdjust="spacing" textLength="89" x="2635.25" y="27.8467">MainActivity</text><line style="stroke:#181818;stroke-width:0.5;" x1="2490" x2="2836" y1="39" y2="39"/><text fill="#000000" font-family="sans-serif" font-size="14" lengthAdjust="spacing" textLength="158" x="2495" y="55.9951">db : FirebaseFirestore</text><line style="stroke:#181818;stroke-width:0.5;" x1="2490" x2="2836" y1="63.2969" y2="63.2969"/><text fill="#000000" font-family="sans-serif" font-size="14" lengthAdjust="spacing" textLength="336" x="2495" y="80.292">#onCreate(savedInstanceState : Bundle) : void</text><text fill="#000000" font-family="sans-serif" font-size="14" lengthAdjust="spacing" textLength="221" x="2495" y="96.5889">+fetchUser(path : String): void</text></g><!--class MapsActivity--><g id="elem_MapsActivity"><rect codeLine="58" fill="#F1F1F1" height="210.9688" id="MapsActivity" rx="2.5" ry="2.5" style="stroke:#181818;stroke-width:0.5;" width="544" x="7" y="303"/><ellipse cx="227.75" cy="319" fill="#ADD1B2" rx="11" ry="11" style="stroke:#181818;stroke-width:1.0;"/><path d="M230.0938,314.6719 C229.1563,314.2344 228.5625,314.0938 227.6875,314.0938 C225.0625,314.0938 223.0625,316.1719 223.0625,318.8906 L223.0625,320.0156 C223.0625,322.5938 225.1719,324.4844 228.0625,324.4844 C229.2813,324.4844 230.4375,324.1875 231.1875,323.6406 C231.7656,323.2344 232.0938,322.7813 232.0938,322.3906 C232.0938,321.9375 231.7031,321.5469 231.2344,321.5469 C231.0156,321.5469 230.8125,321.625 230.625,321.8125 C230.1719,322.2969 230.1719,322.2969 229.9844,322.3906 C229.5625,322.6563 228.875,322.7813 228.1094,322.7813 C226.0625,322.7813 224.7656,321.6875 224.7656,319.9844 L224.7656,318.8906 C224.7656,317.1094 226.0156,315.7969 227.75,315.7969 C228.3281,315.7969 228.9375,315.9531 229.4063,316.2031 C229.8906,316.4844 230.0625,316.7031 230.1563,317.1094 C230.2188,317.5156 230.25,317.6406 230.3906,317.7656 C230.5313,317.9063 230.7656,318.0156 230.9844,318.0156 C231.25,318.0156 231.5156,317.875 231.6875,317.6563 C231.7969,317.5 231.8281,317.3125 231.8281,316.8906 L231.8281,315.4688 C231.8281,315.0313 231.8125,314.9063 231.7188,314.75 C231.5625,314.4844 231.2813,314.3438 230.9844,314.3438 C230.6875,314.3438 230.4844,314.4375 230.2656,314.75 L230.0938,314.6719 Z " fill="#000000"/><ellipse cx="248.25" cy="318.5" fill="#84BE84" rx="-2" ry="-2" style="stroke:#038048;stroke-width:1.0;"/><text fill="#000000" font-family="sans-serif" font-size="14" lengthAdjust="spacing" textLength="93" x="249.25" y="323.8467">MapsActivity</text><line style="stroke:#181818;stroke-width:0.5;" x1="8" x2="550" y1="335" y2="335"/><text fill="#000000" font-family="sans-serif" font-size="14" lengthAdjust="spacing" textLength="144" x="13" y="351.9951">-mMap : GoogleMap</text><text fill="#000000" font-family="sans-serif" font-size="14" lengthAdjust="spacing" textLength="139" x="13" y="368.292">-gMap : GoogleMap</text><text fill="#000000" font-family="sans-serif" font-size="14" lengthAdjust="spacing" textLength="220" x="13" y="384.5889">-binding : ActivityMapsBinding</text><text fill="#000000" font-family="sans-serif" font-size="14" lengthAdjust="spacing" textLength="261" x="13" y="400.8857">-locationManager : LocationManager</text><text fill="#000000" font-family="sans-serif" font-size="14" lengthAdjust="spacing" textLength="158" x="13" y="417.1826">db : FirebaseFirestore</text><line style="stroke:#181818;stroke-width:0.5;" x1="8" x2="550" y1="424.4844" y2="424.4844"/><text fill="#000000" font-family="sans-serif" font-size="14" lengthAdjust="spacing" textLength="336" x="13" y="441.4795">#onCreate(savedInstanceState : Bundle) : void</text><text fill="#000000" font-family="sans-serif" font-size="14" lengthAdjust="spacing" textLength="329" x="13" y="457.7764">+onMapReady(googleMap : GoogleMap) : void</text><text fill="#000000" font-family="sans-serif" font-size="14" lengthAdjust="spacing" textLength="309" x="13" y="474.0732">+addAllQRs(googleMap : GoogleMap) : void</text><text fill="#000000" font-family="sans-serif" font-size="14" lengthAdjust="spacing" textLength="532" x="13" y="490.3701">+addMarkerOnMap(googleMap : GoogleMap, qr : LatLng, score : int ) : void</text><text fill="#000000" font-family="sans-serif" font-size="14" lengthAdjust="spacing" textLength="317" x="13" y="506.667">+searchGeo(lon : double, lat : double ) : void</text></g><!--class ScanFailMsg--><g id="elem_ScanFailMsg"><rect codeLine="76" fill="#F1F1F1" height="80.5938" id="ScanFailMsg" rx="2.5" ry="2.5" style="stroke:#181818;stroke-width:0.5;" width="348" x="1532" y="933"/><ellipse cx="1658.25" cy="949" fill="#ADD1B2" rx="11" ry="11" style="stroke:#181818;stroke-width:1.0;"/><path d="M1660.5938,944.6719 C1659.6563,944.2344 1659.0625,944.0938 1658.1875,944.0938 C1655.5625,944.0938 1653.5625,946.1719 1653.5625,948.8906 L1653.5625,950.0156 C1653.5625,952.5938 1655.6719,954.4844 1658.5625,954.4844 C1659.7813,954.4844 1660.9375,954.1875 1661.6875,953.6406 C1662.2656,953.2344 1662.5938,952.7813 1662.5938,952.3906 C1662.5938,951.9375 1662.2031,951.5469 1661.7344,951.5469 C1661.5156,951.5469 1661.3125,951.625 1661.125,951.8125 C1660.6719,952.2969 1660.6719,952.2969 1660.4844,952.3906 C1660.0625,952.6563 1659.375,952.7813 1658.6094,952.7813 C1656.5625,952.7813 1655.2656,951.6875 1655.2656,949.9844 L1655.2656,948.8906 C1655.2656,947.1094 1656.5156,945.7969 1658.25,945.7969 C1658.8281,945.7969 1659.4375,945.9531 1659.9063,946.2031 C1660.3906,946.4844 1660.5625,946.7031 1660.6563,947.1094 C1660.7188,947.5156 1660.75,947.6406 1660.8906,947.7656 C1661.0313,947.9063 1661.2656,948.0156 1661.4844,948.0156 C1661.75,948.0156 1662.0156,947.875 1662.1875,947.6563 C1662.2969,947.5 1662.3281,947.3125 1662.3281,946.8906 L1662.3281,945.4688 C1662.3281,945.0313 1662.3125,944.9063 1662.2188,944.75 C1662.0625,944.4844 1661.7813,944.3438 1661.4844,944.3438 C1661.1875,944.3438 1660.9844,944.4375 1660.7656,944.75 L1660.5938,944.6719 Z " fill="#000000"/><ellipse cx="1678.75" cy="948.5" fill="#84BE84" rx="-2" ry="-2" style="stroke:#038048;stroke-width:1.0;"/><text fill="#000000" font-family="sans-serif" font-size="14" lengthAdjust="spacing" textLength="86" x="1679.75" y="953.8467">ScanFailMsg</text><line style="stroke:#181818;stroke-width:0.5;" x1="1533" x2="1879" y1="965" y2="965"/><line style="stroke:#181818;stroke-width:0.5;" x1="1533" x2="1879" y1="973" y2="973"/><text fill="#000000" font-family="sans-serif" font-size="14" lengthAdjust="spacing" textLength="336" x="1538" y="989.9951">#onCreate(savedInstanceState : Bundle) : void</text><text fill="#000000" font-family="sans-serif" font-size="14" lengthAdjust="spacing" textLength="124" x="1538" y="1006.292">-initViews() : void</text></g><!--class QRCodeActivity--><g id="elem_QRCodeActivity"><rect codeLine="80" fill="#F1F1F1" height="129.4844" id="QRCodeActivity" rx="2.5" ry="2.5" style="stroke:#181818;stroke-width:0.5;" width="348" x="3199" y="1311"/><ellipse cx="3311.25" cy="1327" fill="#ADD1B2" rx="11" ry="11" style="stroke:#181818;stroke-width:1.0;"/><path d="M3313.5938,1322.6719 C3312.6563,1322.2344 3312.0625,1322.0938 3311.1875,1322.0938 C3308.5625,1322.0938 3306.5625,1324.1719 3306.5625,1326.8906 L3306.5625,1328.0156 C3306.5625,1330.5938 3308.6719,1332.4844 3311.5625,1332.4844 C3312.7813,1332.4844 3313.9375,1332.1875 3314.6875,1331.6406 C3315.2656,1331.2344 3315.5938,1330.7813 3315.5938,1330.3906 C3315.5938,1329.9375 3315.2031,1329.5469 3314.7344,1329.5469 C3314.5156,1329.5469 3314.3125,1329.625 3314.125,1329.8125 C3313.6719,1330.2969 3313.6719,1330.2969 3313.4844,1330.3906 C3313.0625,1330.6563 3312.375,1330.7813 3311.6094,1330.7813 C3309.5625,1330.7813 3308.2656,1329.6875 3308.2656,1327.9844 L3308.2656,1326.8906 C3308.2656,1325.1094 3309.5156,1323.7969 3311.25,1323.7969 C3311.8281,1323.7969 3312.4375,1323.9531 3312.9063,1324.2031 C3313.3906,1324.4844 3313.5625,1324.7031 3313.6563,1325.1094 C3313.7188,1325.5156 3313.75,1325.6406 3313.8906,1325.7656 C3314.0313,1325.9063 3314.2656,1326.0156 3314.4844,1326.0156 C3314.75,1326.0156 3315.0156,1325.875 3315.1875,1325.6563 C3315.2969,1325.5 3315.3281,1325.3125 3315.3281,1324.8906 L3315.3281,1323.4688 C3315.3281,1323.0313 3315.3125,1322.9063 3315.2188,1322.75 C3315.0625,1322.4844 3314.7813,1322.3438 3314.4844,1322.3438 C3314.1875,1322.3438 3313.9844,1322.4375 3313.7656,1322.75 L3313.5938,1322.6719 Z " fill="#000000"/><ellipse cx="3331.75" cy="1326.5" fill="#84BE84" rx="-2" ry="-2" style="stroke:#038048;stroke-width:1.0;"/><text fill="#000000" font-family="sans-serif" font-size="14" lengthAdjust="spacing" textLength="114" x="3332.75" y="1331.8467">QRCodeActivity</text><line style="stroke:#181818;stroke-width:0.5;" x1="3200" x2="3546" y1="1343" y2="1343"/><text fill="#000000" font-family="sans-serif" font-size="14" lengthAdjust="spacing" textLength="158" x="3205" y="1359.9951">db : FirebaseFirestore</text><text fill="#000000" font-family="sans-serif" font-size="14" lengthAdjust="spacing" textLength="201" x="3205" y="1376.292">qrRef : CollectionReference</text><text fill="#000000" font-family="sans-serif" font-size="14" lengthAdjust="spacing" textLength="217" x="3205" y="1392.5889">UserRef : CollectionReference</text><text fill="#000000" font-family="sans-serif" font-size="14" lengthAdjust="spacing" textLength="158" x="3205" y="1408.8857">sr : StorageReference</text><line style="stroke:#181818;stroke-width:0.5;" x1="3200" x2="3546" y1="1416.1875" y2="1416.1875"/><text fill="#000000" font-family="sans-serif" font-size="14" lengthAdjust="spacing" textLength="336" x="3205" y="1433.1826">#onCreate(savedInstanceState : Bundle) : void</text></g><!--class ScannedBarcodeActivity--><g id="elem_ScannedBarcodeActivity"><rect codeLine="87" fill="#F1F1F1" height="455.4219" id="ScannedBarcodeActivity" rx="2.5" ry="2.5" style="stroke:#181818;stroke-width:0.5;" width="707" x="1139.5" y="181"/><ellipse cx="1400.25" cy="197" fill="#ADD1B2" rx="11" ry="11" style="stroke:#181818;stroke-width:1.0;"/><path d="M1402.5938,192.6719 C1401.6563,192.2344 1401.0625,192.0938 1400.1875,192.0938 C1397.5625,192.0938 1395.5625,194.1719 1395.5625,196.8906 L1395.5625,198.0156 C1395.5625,200.5938 1397.6719,202.4844 1400.5625,202.4844 C1401.7813,202.4844 1402.9375,202.1875 1403.6875,201.6406 C1404.2656,201.2344 1404.5938,200.7813 1404.5938,200.3906 C1404.5938,199.9375 1404.2031,199.5469 1403.7344,199.5469 C1403.5156,199.5469 1403.3125,199.625 1403.125,199.8125 C1402.6719,200.2969 1402.6719,200.2969 1402.4844,200.3906 C1402.0625,200.6563 1401.375,200.7813 1400.6094,200.7813 C1398.5625,200.7813 1397.2656,199.6875 1397.2656,197.9844 L1397.2656,196.8906 C1397.2656,195.1094 1398.5156,193.7969 1400.25,193.7969 C1400.8281,193.7969 1401.4375,193.9531 1401.9063,194.2031 C1402.3906,194.4844 1402.5625,194.7031 1402.6563,195.1094 C1402.7188,195.5156 1402.75,195.6406 1402.8906,195.7656 C1403.0313,195.9063 1403.2656,196.0156 1403.4844,196.0156 C1403.75,196.0156 1404.0156,195.875 1404.1875,195.6563 C1404.2969,195.5 1404.3281,195.3125 1404.3281,194.8906 L1404.3281,193.4688 C1404.3281,193.0313 1404.3125,192.9063 1404.2188,192.75 C1404.0625,192.4844 1403.7813,192.3438 1403.4844,192.3438 C1403.1875,192.3438 1402.9844,192.4375 1402.7656,192.75 L1402.5938,192.6719 Z " fill="#000000"/><ellipse cx="1420.75" cy="196.5" fill="#84BE84" rx="-2" ry="-2" style="stroke:#038048;stroke-width:1.0;"/><text fill="#000000" font-family="sans-serif" font-size="14" lengthAdjust="spacing" textLength="176" x="1421.75" y="201.8467">ScannedBarcodeActivity</text><line style="stroke:#181818;stroke-width:0.5;" x1="1140.5" x2="1845.5" y1="213" y2="213"/><text fill="#000000" font-family="sans-serif" font-size="14" lengthAdjust="spacing" text-decoration="underline" textLength="202" x="1145.5" y="229.9951">-IMAGE_CAPTURE_CODE: int</text><text fill="#000000" font-family="sans-serif" font-size="14" lengthAdjust="spacing" textLength="187" x="1145.5" y="246.292">surfaceView : SurfaceView</text><text fill="#000000" font-family="sans-serif" font-size="14" lengthAdjust="spacing" textLength="200" x="1145.5" y="262.5889">txtBarcodeValue : TextView</text><text fill="#000000" font-family="sans-serif" font-size="14" lengthAdjust="spacing" textLength="263" x="1145.5" y="278.8857">barcodeDetector : BarcodeDetector</text><text fill="#000000" font-family="sans-serif" font-size="14" lengthAdjust="spacing" textLength="219" x="1145.5" y="295.1826">cameraSource : CameraSource</text><text fill="#000000" font-family="sans-serif" font-size="14" lengthAdjust="spacing" text-decoration="underline" textLength="267" x="1145.5" y="311.4795">-REQUEST_CAMERA_PERMISSION : int</text><text fill="#000000" font-family="sans-serif" font-size="14" lengthAdjust="spacing" textLength="136" x="1145.5" y="327.7764">btnAction : Button</text><text fill="#000000" font-family="sans-serif" font-size="14" lengthAdjust="spacing" textLength="123" x="1145.5" y="344.0732">btnScan : Button</text><text fill="#000000" font-family="sans-serif" font-size="14" lengthAdjust="spacing" textLength="136" x="1145.5" y="360.3701">intentData : String</text><text fill="#000000" font-family="sans-serif" font-size="14" lengthAdjust="spacing" textLength="117" x="1145.5" y="376.667">isEmail: boolean</text><text fill="#000000" font-family="sans-serif" font-size="14" lengthAdjust="spacing" textLength="101" x="1145.5" y="392.9639">image_uri : Uri</text><text fill="#000000" font-family="sans-serif" font-size="14" lengthAdjust="spacing" textLength="4" x="1145.5" y="409.2607">&#160;</text><text fill="#000000" font-family="sans-serif" font-size="14" lengthAdjust="spacing" textLength="197" x="1145.5" y="425.5576">+class ScoreBoardActivity{</text><line style="stroke:#181818;stroke-width:0.5;" x1="1140.5" x2="1845.5" y1="432.8594" y2="432.8594"/><text fill="#000000" font-family="sans-serif" font-size="14" lengthAdjust="spacing" textLength="336" x="1145.5" y="449.8545">#onCreate(savedInstanceState : Bundle) : void</text><text fill="#000000" font-family="sans-serif" font-size="14" lengthAdjust="spacing" textLength="120" x="1145.5" y="466.1514">-initViews(): void</text><text fill="#000000" font-family="sans-serif" font-size="14" lengthAdjust="spacing" textLength="156" x="1145.5" y="482.4482">+openCamera() : void</text><text fill="#000000" font-family="sans-serif" font-size="14" lengthAdjust="spacing" textLength="695" x="1145.5" y="498.7451">+onRequestPermissionsResult(requestCode : int, permissions : String[], grantResults : int[]): void</text><text fill="#000000" font-family="sans-serif" font-size="14" lengthAdjust="spacing" textLength="526" x="1145.5" y="515.042">#onActivityResult(requestCode : int, resultCode : int, data : Intent) : void</text><text fill="#000000" font-family="sans-serif" font-size="14" lengthAdjust="spacing" textLength="276" x="1145.5" y="531.3389">-initialiseDetectorsAndSources() : void</text><text fill="#000000" font-family="sans-serif" font-size="14" lengthAdjust="spacing" textLength="124" x="1145.5" y="547.6357">#onPause() : void</text><text fill="#000000" font-family="sans-serif" font-size="14" lengthAdjust="spacing" textLength="140" x="1145.5" y="563.9326">#onResume() : void</text><text fill="#000000" font-family="sans-serif" font-size="14" lengthAdjust="spacing" textLength="204" x="1145.5" y="580.2295">#getScore(String code) : int</text><text fill="#000000" font-family="sans-serif" font-size="14" lengthAdjust="spacing" textLength="5" x="1145.5" y="596.5264">)</text><text fill="#000000" font-family="sans-serif" font-size="14" lengthAdjust="spacing" textLength="336" x="1145.5" y="612.8232">#onCreate(savedInstanceState : Bundle) : void</text><text fill="#000000" font-family="sans-serif" font-size="14" lengthAdjust="spacing" textLength="240" x="1145.5" y="629.1201">+updateDatabase() : Task&lt;Void&gt;</text></g><!--class SearchActivity--><g id="elem_SearchActivity"><rect codeLine="114" fill="#F1F1F1" height="80.5938" id="SearchActivity" rx="2.5" ry="2.5" style="stroke:#181818;stroke-width:0.5;" width="348" x="2333" y="368"/><ellipse cx="2449.75" cy="384" fill="#ADD1B2" rx="11" ry="11" style="stroke:#181818;stroke-width:1.0;"/><path d="M2452.0938,379.6719 C2451.1563,379.2344 2450.5625,379.0938 2449.6875,379.0938 C2447.0625,379.0938 2445.0625,381.1719 2445.0625,383.8906 L2445.0625,385.0156 C2445.0625,387.5938 2447.1719,389.4844 2450.0625,389.4844 C2451.2813,389.4844 2452.4375,389.1875 2453.1875,388.6406 C2453.7656,388.2344 2454.0938,387.7813 2454.0938,387.3906 C2454.0938,386.9375 2453.7031,386.5469 2453.2344,386.5469 C2453.0156,386.5469 2452.8125,386.625 2452.625,386.8125 C2452.1719,387.2969 2452.1719,387.2969 2451.9844,387.3906 C2451.5625,387.6563 2450.875,387.7813 2450.1094,387.7813 C2448.0625,387.7813 2446.7656,386.6875 2446.7656,384.9844 L2446.7656,383.8906 C2446.7656,382.1094 2448.0156,380.7969 2449.75,380.7969 C2450.3281,380.7969 2450.9375,380.9531 2451.4063,381.2031 C2451.8906,381.4844 2452.0625,381.7031 2452.1563,382.1094 C2452.2188,382.5156 2452.25,382.6406 2452.3906,382.7656 C2452.5313,382.9063 2452.7656,383.0156 2452.9844,383.0156 C2453.25,383.0156 2453.5156,382.875 2453.6875,382.6563 C2453.7969,382.5 2453.8281,382.3125 2453.8281,381.8906 L2453.8281,380.4688 C2453.8281,380.0313 2453.8125,379.9063 2453.7188,379.75 C2453.5625,379.4844 2453.2813,379.3438 2452.9844,379.3438 C2452.6875,379.3438 2452.4844,379.4375 2452.2656,379.75 L2452.0938,379.6719 Z " fill="#000000"/><ellipse cx="2470.25" cy="383.5" fill="#84BE84" rx="-2" ry="-2" style="stroke:#038048;stroke-width:1.0;"/><text fill="#000000" font-family="sans-serif" font-size="14" lengthAdjust="spacing" textLength="105" x="2471.25" y="388.8467">SearchActivity</text><line style="stroke:#181818;stroke-width:0.5;" x1="2334" x2="2680" y1="400" y2="400"/><line style="stroke:#181818;stroke-width:0.5;" x1="2334" x2="2680" y1="408" y2="408"/><text fill="#000000" font-family="sans-serif" font-size="14" lengthAdjust="spacing" textLength="336" x="2339" y="424.9951">#onCreate(savedInstanceState : Bundle) : void</text><text fill="#000000" font-family="sans-serif" font-size="14" lengthAdjust="spacing" textLength="120" x="2339" y="441.292">-initViews(): void</text></g><!--class SearchFriendActivity--><g id="elem_SearchFriendActivity"><rect codeLine="118" fill="#F1F1F1" height="64.2969" id="SearchFriendActivity" rx="2.5" ry="2.5" style="stroke:#181818;stroke-width:0.5;" width="348" x="1915" y="941.5"/><ellipse cx="2009.25" cy="957.5" fill="#ADD1B2" rx="11" ry="11" style="stroke:#181818;stroke-width:1.0;"/><path d="M2011.5938,953.1719 C2010.6563,952.7344 2010.0625,952.5938 2009.1875,952.5938 C2006.5625,952.5938 2004.5625,954.6719 2004.5625,957.3906 L2004.5625,958.5156 C2004.5625,961.0938 2006.6719,962.9844 2009.5625,962.9844 C2010.7813,962.9844 2011.9375,962.6875 2012.6875,962.1406 C2013.2656,961.7344 2013.5938,961.2813 2013.5938,960.8906 C2013.5938,960.4375 2013.2031,960.0469 2012.7344,960.0469 C2012.5156,960.0469 2012.3125,960.125 2012.125,960.3125 C2011.6719,960.7969 2011.6719,960.7969 2011.4844,960.8906 C2011.0625,961.1563 2010.375,961.2813 2009.6094,961.2813 C2007.5625,961.2813 2006.2656,960.1875 2006.2656,958.4844 L2006.2656,957.3906 C2006.2656,955.6094 2007.5156,954.2969 2009.25,954.2969 C2009.8281,954.2969 2010.4375,954.4531 2010.9063,954.7031 C2011.3906,954.9844 2011.5625,955.2031 2011.6563,955.6094 C2011.7188,956.0156 2011.75,956.1406 2011.8906,956.2656 C2012.0313,956.4063 2012.2656,956.5156 2012.4844,956.5156 C2012.75,956.5156 2013.0156,956.375 2013.1875,956.1563 C2013.2969,956 2013.3281,955.8125 2013.3281,955.3906 L2013.3281,953.9688 C2013.3281,953.5313 2013.3125,953.4063 2013.2188,953.25 C2013.0625,952.9844 2012.7813,952.8438 2012.4844,952.8438 C2012.1875,952.8438 2011.9844,952.9375 2011.7656,953.25 L2011.5938,953.1719 Z " fill="#000000"/><ellipse cx="2029.75" cy="957" fill="#84BE84" rx="-2" ry="-2" style="stroke:#038048;stroke-width:1.0;"/><text fill="#000000" font-family="sans-serif" font-size="14" lengthAdjust="spacing" textLength="150" x="2030.75" y="962.3467">SearchFriendActivity</text><line style="stroke:#181818;stroke-width:0.5;" x1="1916" x2="2262" y1="973.5" y2="973.5"/><line style="stroke:#181818;stroke-width:0.5;" x1="1916" x2="2262" y1="981.5" y2="981.5"/><text fill="#000000" font-family="sans-serif" font-size="14" lengthAdjust="spacing" textLength="336" x="1921" y="998.4951">#onCreate(savedInstanceState : Bundle) : void</text></g><!--class SearchGeoActivity--><g id="elem_SearchGeoActivity"><rect codeLine="121" fill="#F1F1F1" height="64.2969" id="SearchGeoActivity" rx="2.5" ry="2.5" style="stroke:#181818;stroke-width:0.5;" width="348" x="2298" y="941.5"/><ellipse cx="2400.25" cy="957.5" fill="#ADD1B2" rx="11" ry="11" style="stroke:#181818;stroke-width:1.0;"/><path d="M2402.5938,953.1719 C2401.6563,952.7344 2401.0625,952.5938 2400.1875,952.5938 C2397.5625,952.5938 2395.5625,954.6719 2395.5625,957.3906 L2395.5625,958.5156 C2395.5625,961.0938 2397.6719,962.9844 2400.5625,962.9844 C2401.7813,962.9844 2402.9375,962.6875 2403.6875,962.1406 C2404.2656,961.7344 2404.5938,961.2813 2404.5938,960.8906 C2404.5938,960.4375 2404.2031,960.0469 2403.7344,960.0469 C2403.5156,960.0469 2403.3125,960.125 2403.125,960.3125 C2402.6719,960.7969 2402.6719,960.7969 2402.4844,960.8906 C2402.0625,961.1563 2401.375,961.2813 2400.6094,961.2813 C2398.5625,961.2813 2397.2656,960.1875 2397.2656,958.4844 L2397.2656,957.3906 C2397.2656,955.6094 2398.5156,954.2969 2400.25,954.2969 C2400.8281,954.2969 2401.4375,954.4531 2401.9063,954.7031 C2402.3906,954.9844 2402.5625,955.2031 2402.6563,955.6094 C2402.7188,956.0156 2402.75,956.1406 2402.8906,956.2656 C2403.0313,956.4063 2403.2656,956.5156 2403.4844,956.5156 C2403.75,956.5156 2404.0156,956.375 2404.1875,956.1563 C2404.2969,956 2404.3281,955.8125 2404.3281,955.3906 L2404.3281,953.9688 C2404.3281,953.5313 2404.3125,953.4063 2404.2188,953.25 C2404.0625,952.9844 2403.7813,952.8438 2403.4844,952.8438 C2403.1875,952.8438 2402.9844,952.9375 2402.7656,953.25 L2402.5938,953.1719 Z " fill="#000000"/><ellipse cx="2420.75" cy="957" fill="#84BE84" rx="-2" ry="-2" style="stroke:#038048;stroke-width:1.0;"/><text fill="#000000" font-family="sans-serif" font-size="14" lengthAdjust="spacing" textLength="134" x="2421.75" y="962.3467">SearchGeoActivity</text><line style="stroke:#181818;stroke-width:0.5;" x1="2299" x2="2645" y1="973.5" y2="973.5"/><line style="stroke:#181818;stroke-width:0.5;" x1="2299" x2="2645" y1="981.5" y2="981.5"/><text fill="#000000" font-family="sans-serif" font-size="14" lengthAdjust="spacing" textLength="336" x="2304" y="998.4951">#onCreate(savedInstanceState : Bundle) : void</text></g><!--class TestAct--><g id="elem_TestAct"><rect codeLine="125" fill="#F1F1F1" height="373.9375" id="TestAct" rx="2.5" ry="2.5" style="stroke:#181818;stroke-width:0.5;" width="655" x="656.5" y="786.5"/><ellipse cx="950.75" cy="802.5" fill="#ADD1B2" rx="11" ry="11" style="stroke:#181818;stroke-width:1.0;"/><path d="M953.0938,798.1719 C952.1563,797.7344 951.5625,797.5938 950.6875,797.5938 C948.0625,797.5938 946.0625,799.6719 946.0625,802.3906 L946.0625,803.5156 C946.0625,806.0938 948.1719,807.9844 951.0625,807.9844 C952.2813,807.9844 953.4375,807.6875 954.1875,807.1406 C954.7656,806.7344 955.0938,806.2813 955.0938,805.8906 C955.0938,805.4375 954.7031,805.0469 954.2344,805.0469 C954.0156,805.0469 953.8125,805.125 953.625,805.3125 C953.1719,805.7969 953.1719,805.7969 952.9844,805.8906 C952.5625,806.1563 951.875,806.2813 951.1094,806.2813 C949.0625,806.2813 947.7656,805.1875 947.7656,803.4844 L947.7656,802.3906 C947.7656,800.6094 949.0156,799.2969 950.75,799.2969 C951.3281,799.2969 951.9375,799.4531 952.4063,799.7031 C952.8906,799.9844 953.0625,800.2031 953.1563,800.6094 C953.2188,801.0156 953.25,801.1406 953.3906,801.2656 C953.5313,801.4063 953.7656,801.5156 953.9844,801.5156 C954.25,801.5156 954.5156,801.375 954.6875,801.1563 C954.7969,801 954.8281,800.8125 954.8281,800.3906 L954.8281,798.9688 C954.8281,798.5313 954.8125,798.4063 954.7188,798.25 C954.5625,797.9844 954.2813,797.8438 953.9844,797.8438 C953.6875,797.8438 953.4844,797.9375 953.2656,798.25 L953.0938,798.1719 Z " fill="#000000"/><ellipse cx="971.25" cy="802" fill="#84BE84" rx="-2" ry="-2" style="stroke:#038048;stroke-width:1.0;"/><text fill="#000000" font-family="sans-serif" font-size="14" lengthAdjust="spacing" textLength="57" x="972.25" y="807.3467">TestAct</text><line style="stroke:#181818;stroke-width:0.5;" x1="657.5" x2="1310.5" y1="818.5" y2="818.5"/><text fill="#000000" font-family="sans-serif" font-size="14" lengthAdjust="spacing" textLength="423" x="662.5" y="835.4951">fusedLocationProviderClient : FusedLocationProviderClient</text><text fill="#000000" font-family="sans-serif" font-size="14" lengthAdjust="spacing" text-decoration="underline" textLength="181" x="662.5" y="851.792">-MY_REQUEST_CODE : int</text><text fill="#000000" font-family="sans-serif" font-size="14" lengthAdjust="spacing" textLength="154" x="662.5" y="868.0889">SELECT_PICTURE : int</text><text fill="#000000" font-family="sans-serif" font-size="14" lengthAdjust="spacing" text-decoration="underline" textLength="206" x="662.5" y="884.3857">-IMAGE_CAPTURE_CODE : int</text><text fill="#000000" font-family="sans-serif" font-size="14" lengthAdjust="spacing" textLength="101" x="662.5" y="900.6826">image_uri : Uri</text><text fill="#000000" font-family="sans-serif" font-size="14" lengthAdjust="spacing" textLength="158" x="662.5" y="916.9795">db : FirebaseFirestore</text><text fill="#000000" font-family="sans-serif" font-size="14" lengthAdjust="spacing" textLength="216" x="662.5" y="933.2764">userRef : CollectionReference</text><text fill="#000000" font-family="sans-serif" font-size="14" lengthAdjust="spacing" textLength="201" x="662.5" y="949.5732">qrRef : CollectionReference</text><text fill="#000000" font-family="sans-serif" font-size="14" lengthAdjust="spacing" textLength="158" x="662.5" y="965.8701">sr : StorageReference</text><text fill="#000000" font-family="sans-serif" font-size="14" lengthAdjust="spacing" textLength="113" x="662.5" y="982.167">wPic : boolean[]</text><text fill="#000000" font-family="sans-serif" font-size="14" lengthAdjust="spacing" textLength="117" x="662.5" y="998.4639">wLoc : boolean[]</text><text fill="#000000" font-family="sans-serif" font-size="14" lengthAdjust="spacing" textLength="99" x="662.5" y="1014.7607">test : QRcode</text><line style="stroke:#181818;stroke-width:0.5;" x1="657.5" x2="1310.5" y1="1022.0625" y2="1022.0625"/><text fill="#000000" font-family="sans-serif" font-size="14" lengthAdjust="spacing" textLength="336" x="662.5" y="1039.0576">#onCreate(savedInstanceState : Bundle) : void</text><text fill="#000000" font-family="sans-serif" font-size="14" lengthAdjust="spacing" textLength="259" x="662.5" y="1055.3545">-fillLastLocation(QR : QRcode) : void</text><text fill="#000000" font-family="sans-serif" font-size="14" lengthAdjust="spacing" textLength="525" x="662.5" y="1071.6514">+onActivityResult(requestCode : int, resultCode : int, data : Intent) : void</text><text fill="#000000" font-family="sans-serif" font-size="14" lengthAdjust="spacing" textLength="334" x="662.5" y="1087.9482">-uploadPhoto(input &#65306;QRcode, uri &#65306;Uri) &#65306; void</text><text fill="#000000" font-family="sans-serif" font-size="14" lengthAdjust="spacing" textLength="219" x="662.5" y="1104.2451">-getExtension(uri : Uri) : String</text><text fill="#000000" font-family="sans-serif" font-size="14" lengthAdjust="spacing" textLength="643" x="662.5" y="1120.542">-addToUserCollection(userRef : CollectionReference, name : String, input : QRcode) : void</text><text fill="#000000" font-family="sans-serif" font-size="14" lengthAdjust="spacing" textLength="618" x="662.5" y="1136.8389">-addToQRCollection(qrRef : CollectionReference, name : String, input : QRcode) : void</text><text fill="#000000" font-family="sans-serif" font-size="14" lengthAdjust="spacing" textLength="160" x="662.5" y="1153.1357">-openCamera() &#65306; void</text></g><!--class UserActivity--><g id="elem_UserActivity"><rect codeLine="147" fill="#F1F1F1" height="113.1875" id="UserActivity" rx="2.5" ry="2.5" style="stroke:#181818;stroke-width:0.5;" width="348" x="2874" y="352"/><ellipse cx="2999.75" cy="368" fill="#ADD1B2" rx="11" ry="11" style="stroke:#181818;stroke-width:1.0;"/><path d="M3002.0938,363.6719 C3001.1563,363.2344 3000.5625,363.0938 2999.6875,363.0938 C2997.0625,363.0938 2995.0625,365.1719 2995.0625,367.8906 L2995.0625,369.0156 C2995.0625,371.5938 2997.1719,373.4844 3000.0625,373.4844 C3001.2813,373.4844 3002.4375,373.1875 3003.1875,372.6406 C3003.7656,372.2344 3004.0938,371.7813 3004.0938,371.3906 C3004.0938,370.9375 3003.7031,370.5469 3003.2344,370.5469 C3003.0156,370.5469 3002.8125,370.625 3002.625,370.8125 C3002.1719,371.2969 3002.1719,371.2969 3001.9844,371.3906 C3001.5625,371.6563 3000.875,371.7813 3000.1094,371.7813 C2998.0625,371.7813 2996.7656,370.6875 2996.7656,368.9844 L2996.7656,367.8906 C2996.7656,366.1094 2998.0156,364.7969 2999.75,364.7969 C3000.3281,364.7969 3000.9375,364.9531 3001.4063,365.2031 C3001.8906,365.4844 3002.0625,365.7031 3002.1563,366.1094 C3002.2188,366.5156 3002.25,366.6406 3002.3906,366.7656 C3002.5313,366.9063 3002.7656,367.0156 3002.9844,367.0156 C3003.25,367.0156 3003.5156,366.875 3003.6875,366.6563 C3003.7969,366.5 3003.8281,366.3125 3003.8281,365.8906 L3003.8281,364.4688 C3003.8281,364.0313 3003.8125,363.9063 3003.7188,363.75 C3003.5625,363.4844 3003.2813,363.3438 3002.9844,363.3438 C3002.6875,363.3438 3002.4844,363.4375 3002.2656,363.75 L3002.0938,363.6719 Z " fill="#000000"/><ellipse cx="3020.25" cy="367.5" fill="#84BE84" rx="-2" ry="-2" style="stroke:#038048;stroke-width:1.0;"/><text fill="#000000" font-family="sans-serif" font-size="14" lengthAdjust="spacing" textLength="87" x="3021.25" y="372.8467">UserActivity</text><line style="stroke:#181818;stroke-width:0.5;" x1="2875" x2="3221" y1="384" y2="384"/><line style="stroke:#181818;stroke-width:0.5;" x1="2875" x2="3221" y1="392" y2="392"/><text fill="#000000" font-family="sans-serif" font-size="14" lengthAdjust="spacing" textLength="336" x="2880" y="408.9951">#onCreate(savedInstanceState : Bundle) : void</text><text fill="#000000" font-family="sans-serif" font-size="14" lengthAdjust="spacing" textLength="137" x="2880" y="425.292">#onRestart() : void</text><text fill="#000000" font-family="sans-serif" font-size="14" lengthAdjust="spacing" textLength="240" x="2880" y="441.5889">+updateDatabase() : Task&lt;Void&gt;</text><text fill="#000000" font-family="sans-serif" font-size="14" lengthAdjust="spacing" textLength="302" x="2880" y="457.8857">+uploadPhoto(QRcode input, Uri uri) : void</text></g><!--class AppCompatActivity--><g id="elem_AppCompatActivity"><rect codeLine="153" fill="#F1F1F1" height="48" id="AppCompatActivity" rx="2.5" ry="2.5" style="stroke:#181818;stroke-width:0.5;" width="177" x="2645.5" y="1351.5"/><ellipse cx="2660.5" cy="1367.5" fill="#ADD1B2" rx="11" ry="11" style="stroke:#181818;stroke-width:1.0;"/><path d="M2662.8438,1363.1719 C2661.9063,1362.7344 2661.3125,1362.5938 2660.4375,1362.5938 C2657.8125,1362.5938 2655.8125,1364.6719 2655.8125,1367.3906 L2655.8125,1368.5156 C2655.8125,1371.0938 2657.9219,1372.9844 2660.8125,1372.9844 C2662.0313,1372.9844 2663.1875,1372.6875 2663.9375,1372.1406 C2664.5156,1371.7344 2664.8438,1371.2813 2664.8438,1370.8906 C2664.8438,1370.4375 2664.4531,1370.0469 2663.9844,1370.0469 C2663.7656,1370.0469 2663.5625,1370.125 2663.375,1370.3125 C2662.9219,1370.7969 2662.9219,1370.7969 2662.7344,1370.8906 C2662.3125,1371.1563 2661.625,1371.2813 2660.8594,1371.2813 C2658.8125,1371.2813 2657.5156,1370.1875 2657.5156,1368.4844 L2657.5156,1367.3906 C2657.5156,1365.6094 2658.7656,1364.2969 2660.5,1364.2969 C2661.0781,1364.2969 2661.6875,1364.4531 2662.1563,1364.7031 C2662.6406,1364.9844 2662.8125,1365.2031 2662.9063,1365.6094 C2662.9688,1366.0156 2663,1366.1406 2663.1406,1366.2656 C2663.2813,1366.4063 2663.5156,1366.5156 2663.7344,1366.5156 C2664,1366.5156 2664.2656,1366.375 2664.4375,1366.1563 C2664.5469,1366 2664.5781,1365.8125 2664.5781,1365.3906 L2664.5781,1363.9688 C2664.5781,1363.5313 2664.5625,1363.4063 2664.4688,1363.25 C2664.3125,1362.9844 2664.0313,1362.8438 2663.7344,1362.8438 C2663.4375,1362.8438 2663.2344,1362.9375 2663.0156,1363.25 L2662.8438,1363.1719 Z " fill="#000000"/><ellipse cx="2674.5" cy="1367" fill="#84BE84" rx="-2" ry="-2" style="stroke:#038048;stroke-width:1.0;"/><text fill="#000000" font-family="sans-serif" font-size="14" lengthAdjust="spacing" textLength="144" x="2675.5" y="1372.3467">AppCompatActivity</text><line style="stroke:#181818;stroke-width:0.5;" x1="2646.5" x2="2821.5" y1="1383.5" y2="1383.5"/><line style="stroke:#181818;stroke-width:0.5;" x1="2646.5" x2="2821.5" y1="1391.5" y2="1391.5"/></g><!--class FragmentActivity--><g id="elem_FragmentActivity"><rect codeLine="155" fill="#F1F1F1" height="48" id="FragmentActivity" rx="2.5" ry="2.5" style="stroke:#181818;stroke-width:0.5;" width="159" x="17.5" y="949.5"/><ellipse cx="32.5" cy="965.5" fill="#ADD1B2" rx="11" ry="11" style="stroke:#181818;stroke-width:1.0;"/><path d="M34.8438,961.1719 C33.9063,960.7344 33.3125,960.5938 32.4375,960.5938 C29.8125,960.5938 27.8125,962.6719 27.8125,965.3906 L27.8125,966.5156 C27.8125,969.0938 29.9219,970.9844 32.8125,970.9844 C34.0313,970.9844 35.1875,970.6875 35.9375,970.1406 C36.5156,969.7344 36.8438,969.2813 36.8438,968.8906 C36.8438,968.4375 36.4531,968.0469 35.9844,968.0469 C35.7656,968.0469 35.5625,968.125 35.375,968.3125 C34.9219,968.7969 34.9219,968.7969 34.7344,968.8906 C34.3125,969.1563 33.625,969.2813 32.8594,969.2813 C30.8125,969.2813 29.5156,968.1875 29.5156,966.4844 L29.5156,965.3906 C29.5156,963.6094 30.7656,962.2969 32.5,962.2969 C33.0781,962.2969 33.6875,962.4531 34.1563,962.7031 C34.6406,962.9844 34.8125,963.2031 34.9063,963.6094 C34.9688,964.0156 35,964.1406 35.1406,964.2656 C35.2813,964.4063 35.5156,964.5156 35.7344,964.5156 C36,964.5156 36.2656,964.375 36.4375,964.1563 C36.5469,964 36.5781,963.8125 36.5781,963.3906 L36.5781,961.9688 C36.5781,961.5313 36.5625,961.4063 36.4688,961.25 C36.3125,960.9844 36.0313,960.8438 35.7344,960.8438 C35.4375,960.8438 35.2344,960.9375 35.0156,961.25 L34.8438,961.1719 Z " fill="#000000"/><ellipse cx="46.5" cy="965" fill="#84BE84" rx="-2" ry="-2" style="stroke:#038048;stroke-width:1.0;"/><text fill="#000000" font-family="sans-serif" font-size="14" lengthAdjust="spacing" textLength="126" x="47.5" y="970.3467">FragmentActivity</text><line style="stroke:#181818;stroke-width:0.5;" x1="18.5" x2="175.5" y1="981.5" y2="981.5"/><line style="stroke:#181818;stroke-width:0.5;" x1="18.5" x2="175.5" y1="989.5" y2="989.5"/></g><!--class OnMapReadyCallback--><g id="elem_OnMapReadyCallback"><rect codeLine="157" fill="#F1F1F1" height="48" id="OnMapReadyCallback" rx="2.5" ry="2.5" style="stroke:#181818;stroke-width:0.5;" width="189" x="586.5" y="384.5"/><ellipse cx="601.5" cy="400.5" fill="#B4A7E5" rx="11" ry="11" style="stroke:#181818;stroke-width:1.0;"/><path d="M602.4531,397.2813 L604.1719,397.2813 C604.5625,397.2813 604.75,397.25 604.875,397.1719 C605.1406,397.0156 605.2813,396.7344 605.2813,396.4375 C605.2813,396.1719 605.1719,395.9063 604.9375,395.7344 C604.7656,395.625 604.625,395.5938 604.1719,395.5938 L599.0313,395.5938 C598.5938,395.5938 598.4688,395.6094 598.3125,395.7031 C598.0625,395.8594 597.9063,396.1563 597.9063,396.4375 C597.9063,396.7188 598.0469,396.9688 598.2656,397.1406 C598.4219,397.25 598.6094,397.2813 599.0313,397.2813 L600.75,397.2813 L600.75,403.7969 L599.0313,403.7969 C598.5938,403.7969 598.4688,403.8125 598.3125,403.9219 C598.0625,404.0781 597.9063,404.3594 597.9063,404.6563 C597.9063,404.9063 598.0469,405.1719 598.2656,405.3281 C598.4219,405.4531 598.625,405.5 599.0313,405.5 L604.1719,405.5 C604.9219,405.5 605.2813,405.2188 605.2813,404.6563 C605.2813,404.375 605.1719,404.125 604.9375,403.9531 C604.7656,403.8281 604.625,403.7969 604.1719,403.7969 L602.4531,403.7969 L602.4531,397.2813 Z " fill="#000000"/><ellipse cx="615.5" cy="400" fill="#84BE84" rx="-2" ry="-2" style="stroke:#038048;stroke-width:1.0;"/><text fill="#000000" font-family="sans-serif" font-size="14" font-style="italic" lengthAdjust="spacing" textLength="156" x="616.5" y="405.3467">OnMapReadyCallback</text><line style="stroke:#181818;stroke-width:0.5;" x1="587.5" x2="774.5" y1="416.5" y2="416.5"/><line style="stroke:#181818;stroke-width:0.5;" x1="587.5" x2="774.5" y1="424.5" y2="424.5"/></g><!--class ScanSuccessMsg--><g id="elem_ScanSuccessMsg"><rect fill="#F1F1F1" height="48" id="ScanSuccessMsg" rx="2.5" ry="2.5" style="stroke:#181818;stroke-width:0.5;" width="150" x="1347" y="949.5"/><ellipse cx="1362" cy="965.5" fill="#ADD1B2" rx="11" ry="11" style="stroke:#181818;stroke-width:1.0;"/><path d="M1364.3438,961.1719 C1363.4063,960.7344 1362.8125,960.5938 1361.9375,960.5938 C1359.3125,960.5938 1357.3125,962.6719 1357.3125,965.3906 L1357.3125,966.5156 C1357.3125,969.0938 1359.4219,970.9844 1362.3125,970.9844 C1363.5313,970.9844 1364.6875,970.6875 1365.4375,970.1406 C1366.0156,969.7344 1366.3438,969.2813 1366.3438,968.8906 C1366.3438,968.4375 1365.9531,968.0469 1365.4844,968.0469 C1365.2656,968.0469 1365.0625,968.125 1364.875,968.3125 C1364.4219,968.7969 1364.4219,968.7969 1364.2344,968.8906 C1363.8125,969.1563 1363.125,969.2813 1362.3594,969.2813 C1360.3125,969.2813 1359.0156,968.1875 1359.0156,966.4844 L1359.0156,965.3906 C1359.0156,963.6094 1360.2656,962.2969 1362,962.2969 C1362.5781,962.2969 1363.1875,962.4531 1363.6563,962.7031 C1364.1406,962.9844 1364.3125,963.2031 1364.4063,963.6094 C1364.4688,964.0156 1364.5,964.1406 1364.6406,964.2656 C1364.7813,964.4063 1365.0156,964.5156 1365.2344,964.5156 C1365.5,964.5156 1365.7656,964.375 1365.9375,964.1563 C1366.0469,964 1366.0781,963.8125 1366.0781,963.3906 L1366.0781,961.9688 C1366.0781,961.5313 1366.0625,961.4063 1365.9688,961.25 C1365.8125,960.9844 1365.5313,960.8438 1365.2344,960.8438 C1364.9375,960.8438 1364.7344,960.9375 1364.5156,961.25 L1364.3438,961.1719 Z " fill="#000000"/><text fill="#000000" font-family="sans-serif" font-size="14" lengthAdjust="spacing" textLength="118" x="1376" y="970.3467">ScanSuccessMsg</text><line style="stroke:#181818;stroke-width:0.5;" x1="1348" x2="1496" y1="981.5" y2="981.5"/><line style="stroke:#181818;stroke-width:0.5;" x1="1348" x2="1496" y1="989.5" y2="989.5"/></g><!--class ScoreBoardActivity--><g id="elem_ScoreBoardActivity"><rect fill="#F1F1F1" height="48" id="ScoreBoardActivity" rx="2.5" ry="2.5" style="stroke:#181818;stroke-width:0.5;" width="171" x="2823.5" y="949.5"/><ellipse cx="2838.5" cy="965.5" fill="#ADD1B2" rx="11" ry="11" style="stroke:#181818;stroke-width:1.0;"/><path d="M2840.8438,961.1719 C2839.9063,960.7344 2839.3125,960.5938 2838.4375,960.5938 C2835.8125,960.5938 2833.8125,962.6719 2833.8125,965.3906 L2833.8125,966.5156 C2833.8125,969.0938 2835.9219,970.9844 2838.8125,970.9844 C2840.0313,970.9844 2841.1875,970.6875 2841.9375,970.1406 C2842.5156,969.7344 2842.8438,969.2813 2842.8438,968.8906 C2842.8438,968.4375 2842.4531,968.0469 2841.9844,968.0469 C2841.7656,968.0469 2841.5625,968.125 2841.375,968.3125 C2840.9219,968.7969 2840.9219,968.7969 2840.7344,968.8906 C2840.3125,969.1563 2839.625,969.2813 2838.8594,969.2813 C2836.8125,969.2813 2835.5156,968.1875 2835.5156,966.4844 L2835.5156,965.3906 C2835.5156,963.6094 2836.7656,962.2969 2838.5,962.2969 C2839.0781,962.2969 2839.6875,962.4531 2840.1563,962.7031 C2840.6406,962.9844 2840.8125,963.2031 2840.9063,963.6094 C2840.9688,964.0156 2841,964.1406 2841.1406,964.2656 C2841.2813,964.4063 2841.5156,964.5156 2841.7344,964.5156 C2842,964.5156 2842.2656,964.375 2842.4375,964.1563 C2842.5469,964 2842.5781,963.8125 2842.5781,963.3906 L2842.5781,961.9688 C2842.5781,961.5313 2842.5625,961.4063 2842.4688,961.25 C2842.3125,960.9844 2842.0313,960.8438 2841.7344,960.8438 C2841.4375,960.8438 2841.2344,960.9375 2841.0156,961.25 L2840.8438,961.1719 Z " fill="#000000"/><text fill="#000000" font-family="sans-serif" font-size="14" lengthAdjust="spacing" textLength="139" x="2852.5" y="970.3467">ScoreBoardActivity</text><line style="stroke:#181818;stroke-width:0.5;" x1="2824.5" x2="2993.5" y1="981.5" y2="981.5"/><line style="stroke:#181818;stroke-width:0.5;" x1="2824.5" x2="2993.5" y1="989.5" y2="989.5"/></g><!--class SearchFriendsActivity--><g id="elem_SearchFriendsActivity"><rect fill="#F1F1F1" height="48" id="SearchFriendsActivity" rx="2.5" ry="2.5" style="stroke:#181818;stroke-width:0.5;" width="189" x="3688.5" y="31.5"/><ellipse cx="3703.5" cy="47.5" fill="#ADD1B2" rx="11" ry="11" style="stroke:#181818;stroke-width:1.0;"/><path d="M3705.8438,43.1719 C3704.9063,42.7344 3704.3125,42.5938 3703.4375,42.5938 C3700.8125,42.5938 3698.8125,44.6719 3698.8125,47.3906 L3698.8125,48.5156 C3698.8125,51.0938 3700.9219,52.9844 3703.8125,52.9844 C3705.0313,52.9844 3706.1875,52.6875 3706.9375,52.1406 C3707.5156,51.7344 3707.8438,51.2813 3707.8438,50.8906 C3707.8438,50.4375 3707.4531,50.0469 3706.9844,50.0469 C3706.7656,50.0469 3706.5625,50.125 3706.375,50.3125 C3705.9219,50.7969 3705.9219,50.7969 3705.7344,50.8906 C3705.3125,51.1563 3704.625,51.2813 3703.8594,51.2813 C3701.8125,51.2813 3700.5156,50.1875 3700.5156,48.4844 L3700.5156,47.3906 C3700.5156,45.6094 3701.7656,44.2969 3703.5,44.2969 C3704.0781,44.2969 3704.6875,44.4531 3705.1563,44.7031 C3705.6406,44.9844 3705.8125,45.2031 3705.9063,45.6094 C3705.9688,46.0156 3706,46.1406 3706.1406,46.2656 C3706.2813,46.4063 3706.5156,46.5156 3706.7344,46.5156 C3707,46.5156 3707.2656,46.375 3707.4375,46.1563 C3707.5469,46 3707.5781,45.8125 3707.5781,45.3906 L3707.5781,43.9688 C3707.5781,43.5313 3707.5625,43.4063 3707.4688,43.25 C3707.3125,42.9844 3707.0313,42.8438 3706.7344,42.8438 C3706.4375,42.8438 3706.2344,42.9375 3706.0156,43.25 L3705.8438,43.1719 Z " fill="#000000"/><text fill="#000000" font-family="sans-serif" font-size="14" lengthAdjust="spacing" textLength="157" x="3717.5" y="52.3467">SearchFriendsActivity</text><line style="stroke:#181818;stroke-width:0.5;" x1="3689.5" x2="3876.5" y1="63.5" y2="63.5"/><line style="stroke:#181818;stroke-width:0.5;" x1="3689.5" x2="3876.5" y1="71.5" y2="71.5"/></g><!--link CollectionActivity to AppCompatActivity--><g id="link_CollectionActivity_AppCompatActivity"><path codeLine="159" d="M3327.53,1038.258 C3274.45,1108.032 3180.28,1218.29 3074,1281 C3002.98,1322.907 2912.56,1346.6 2842.82,1359.643 " fill="none" id="CollectionActivity-to-AppCompatActivity" style="stroke:#181818;stroke-width:1.0;"/><polygon fill="none" points="2843.73,1366.592,2822.82,1363.202,2841.28,1352.808,2843.73,1366.592" style="stroke:#181818;stroke-width:1.0;"/></g><!--link MainActivity to AppCompatActivity--><g id="link_MainActivity_AppCompatActivity"><path codeLine="160" d="M2721.23,104.31 C2728.85,113.33 2735.55,123.32 2740,134 C2836.54,365.82 2747.11,1012.884 2748,1264 C2748.03,1271.556 2748.56,1273.465 2748,1281 C2746.77,1297.542 2744.33,1315.595 2741.82,1331.388 " fill="none" id="MainActivity-to-AppCompatActivity" style="stroke:#181818;stroke-width:1.0;"/><polygon fill="none" points="2748.72,1332.616,2738.48,1351.169,2734.91,1330.282,2748.72,1332.616" style="stroke:#181818;stroke-width:1.0;"/></g><!--link MapsActivity to FragmentActivity--><g id="link_MapsActivity_FragmentActivity"><path codeLine="161" d="M245.194,514.08 C204.785,639.078 139.072,842.354 110.729,930.032 " fill="none" id="MapsActivity-to-FragmentActivity" style="stroke:#181818;stroke-width:1.0;"/><polygon fill="none" points="117.327,932.376,104.5148,949.254,104.0062,928.07,117.327,932.376" style="stroke:#181818;stroke-width:1.0;"/></g><!--link MapsActivity to OnMapReadyCallback--><g id="link_MapsActivity_OnMapReadyCallback"><path codeLine="162" d="M551.057,408.5 C556.109,408.5 561.162,408.5 566.215,408.5 " fill="none" id="MapsActivity-to-OnMapReadyCallback" style="stroke:#181818;stroke-width:1.0;stroke-dasharray:7.0,7.0;"/><polygon fill="none" points="566.334,401.5,586.334,408.5,566.334,415.5,566.334,401.5" style="stroke:#181818;stroke-width:1.0;"/></g><!--link ScanFailMsg to AppCompatActivity--><g id="link_ScanFailMsg_AppCompatActivity"><path codeLine="163" d="M1723.14,1014.128 C1750.65,1072.607 1810.51,1180.818 1897,1234 C2017.32,1307.982 2426.84,1349.953 2624.93,1366.366 " fill="none" id="ScanFailMsg-to-AppCompatActivity" style="stroke:#181818;stroke-width:1.0;"/><polygon fill="none" points="2625.78,1359.412,2645.14,1368.013,2624.64,1373.366,2625.78,1359.412" style="stroke:#181818;stroke-width:1.0;"/></g><!--link ScannedBarcodeActivity to AppCompatActivity--><g id="link_ScannedBarcodeActivity_AppCompatActivity"><path codeLine="164" d="M1139.25,536.74 C1029.38,572.79 907.137,609.41 793,636 C677.518,662.903 342.56,623.31 265,713 C189.27,800.575 185.492,1149.839 265,1234 C347.165,1320.974 2158.74,1363.019 2625.23,1372.427 " fill="none" id="ScannedBarcodeActivity-to-AppCompatActivity" style="stroke:#181818;stroke-width:1.0;"/><polygon fill="none" points="2625.6,1365.433,2645.45,1372.832,2625.32,1379.43,2625.6,1365.433" style="stroke:#181818;stroke-width:1.0;"/></g><!--link ScanSuccessMsg to AppCompatActivity--><g id="link_ScanSuccessMsg_AppCompatActivity"><path codeLine="165" d="M1422.54,997.772 C1425.13,1049.563 1439.21,1174.456 1514,1234 C1600.14,1302.582 2341.69,1351.969 2624.79,1368.481 " fill="none" id="ScanSuccessMsg-to-AppCompatActivity" style="stroke:#181818;stroke-width:1.0;"/><polygon fill="none" points="2625.6,1361.516,2645.16,1369.659,2624.79,1375.493,2625.6,1361.516" style="stroke:#181818;stroke-width:1.0;"/></g><!--link ScoreBoardActivity to AppCompatActivity--><g id="link_ScoreBoardActivity_AppCompatActivity"><path codeLine="166" d="M2902.51,997.561 C2887.42,1049.67 2847.31,1179.841 2796,1281 C2786.67,1299.399 2774.45,1318.578 2763.32,1334.743 " fill="none" id="ScoreBoardActivity-to-AppCompatActivity" style="stroke:#181818;stroke-width:1.0;"/><polygon fill="none" points="2768.93,1338.939,2751.66,1351.215,2757.5,1330.848,2768.93,1338.939" style="stroke:#181818;stroke-width:1.0;"/></g><!--link SearchActivity to AppCompatActivity--><g id="link_SearchActivity_AppCompatActivity"><path codeLine="167" d="M2533.5,449.19 C2569.51,505.31 2632.84,612.26 2663,713 C2730.49,938.461 2735.52,1224.08 2734.77,1331.266 " fill="none" id="SearchActivity-to-AppCompatActivity" style="stroke:#181818;stroke-width:1.0;"/><polygon fill="none" points="2741.77,1331.425,2734.54,1351.344,2727.77,1331.265,2741.77,1331.425" style="stroke:#181818;stroke-width:1.0;"/></g><!--link SearchFriendsActivity to AppCompatActivity--><g id="link_SearchFriendsActivity_AppCompatActivity"><path codeLine="168" d="M3805.81,79.75 C3818.24,94.11 3832.41,113.63 3839,134 C3841.33,141.19 3839.05,143.44 3839,151 C3835.48,638.707 4012.34,894.691 3662,1234 C3600.13,1293.919 3558.83,1266.131 3474,1281 C3345.06,1303.599 3310.94,1295.125 3181,1311 C3065.39,1325.125 2933.39,1344.247 2842.97,1357.805 " fill="none" id="SearchFriendsActivity-to-AppCompatActivity" style="stroke:#181818;stroke-width:1.0;"/><polygon fill="none" points="2843.73,1364.77,2822.92,1360.825,2841.65,1350.926,2843.73,1364.77" style="stroke:#181818;stroke-width:1.0;"/></g><!--link TestAct to AppCompatActivity--><g id="link_TestAct_AppCompatActivity"><path codeLine="169" d="M1199.8,1160.773 C1240.68,1188.912 1284.6,1214.873 1329,1234 C1562.07,1334.41 2337.2,1364.306 2625.1,1372.067 " fill="none" id="TestAct-to-AppCompatActivity" style="stroke:#181818;stroke-width:1.0;"/><polygon fill="none" points="2625.57,1365.077,2645.38,1372.599,2625.2,1379.072,2625.57,1365.077" style="stroke:#181818;stroke-width:1.0;"/></g><!--link UserActivity to AppCompatActivity--><g id="link_UserActivity_AppCompatActivity"><path codeLine="170" d="M3052.65,465.2 C3065.28,629.24 3093.98,1107.004 3012,1234 C2973.89,1293.035 2902.85,1328.338 2842.12,1348.791 " fill="none" id="UserActivity-to-AppCompatActivity" style="stroke:#181818;stroke-width:1.0;"/><polygon fill="none" points="2844,1355.538,2822.82,1354.921,2839.76,1342.195,2844,1355.538" style="stroke:#181818;stroke-width:1.0;"/></g><!--reverse link QRcode to TestAct--><g id="link_QRcode_TestAct"><path codeLine="172" d="M634.264,973.5 C641.573,973.5 648.883,973.5 656.192,973.5 " fill="none" id="QRcode-backto-TestAct" style="stroke:#181818;stroke-width:1.0;"/><polygon fill="none" points="621.107,973.5,627.107,977.5,633.107,973.5,627.107,969.5,621.107,973.5" style="stroke:#181818;stroke-width:1.0;"/><text fill="#000000" font-family="sans-serif" font-size="13" lengthAdjust="spacing" textLength="23" x="624.9663" y="970.1772">0..*</text><text fill="#000000" font-family="sans-serif" font-size="13" lengthAdjust="spacing" textLength="23" x="625.2395" y="985.745">0..*</text></g><!--link MainActivity to UserActivity--><g id="link_MainActivity_UserActivity"><path codeLine="174" d="M2753.07,104.03 C2767.92,113.24 2782.77,123.37 2796,134 C2876.23,198.48 2954.27,288.72 3001.72,347.63 " fill="none" id="MainActivity-to-UserActivity" style="stroke:#181818;stroke-width:1.0;"/><polygon fill="#181818" points="3005.09,351.81,3002.5785,342.2868,3001.9613,347.9098,2996.3382,347.2927,3005.09,351.81" style="stroke:#181818;stroke-width:1.0;"/><text fill="#000000" font-family="sans-serif" font-size="13" lengthAdjust="spacing" textLength="101" x="2813" y="147.0669">choosing profile</text></g><!--link MainActivity to CollectionActivity--><g id="link_MainActivity_CollectionActivity"><path codeLine="175" d="M2837.09,72.75 C2985.9,90.35 3184.39,123.87 3239,181 C3264.1,207.26 3337.23,716.003 3363.48,903.703 " fill="none" id="MainActivity-to-CollectionActivity" style="stroke:#181818;stroke-width:1.0;"/><polygon fill="#181818" points="3364.21,908.891,3366.9284,899.4247,3363.5193,903.9389,3359.0051,900.5299,3364.21,908.891" style="stroke:#181818;stroke-width:1.0;"/><text fill="#000000" font-family="sans-serif" font-size="13" lengthAdjust="spacing" textLength="121" x="3325" y="413.0669">choosing collection</text></g><!--link UserActivity to CollectionActivity--><g id="link_UserActivity_CollectionActivity"><path codeLine="176" d="M3050.32,465.08 C3054.69,522.5 3067.21,613.31 3103,683 C3148.24,771.086 3228.09,851.725 3289.26,905.396 " fill="none" id="UserActivity-to-CollectionActivity" style="stroke:#181818;stroke-width:1.0;"/><polygon fill="#181818" points="3293.26,908.892,3289.1083,899.9609,3289.4925,905.6047,3283.8487,905.9889,3293.26,908.892" style="stroke:#181818;stroke-width:1.0;"/><text fill="#000000" font-family="sans-serif" font-size="13" lengthAdjust="spacing" textLength="177" x="3104" y="679.0669">enter collection from profile</text></g><!--link MainActivity to ScannedBarcodeActivity--><g id="link_MainActivity_ScannedBarcodeActivity"><path codeLine="177" d="M2504.6,104.02 C2337.82,154.05 2069.67,234.5 1851.34,300 " fill="none" id="MainActivity-to-ScannedBarcodeActivity" style="stroke:#181818;stroke-width:1.0;"/><polygon fill="#181818" points="1846.52,301.44,1856.2915,302.6718,1851.3072,299.9967,1853.9823,295.0123,1846.52,301.44" style="stroke:#181818;stroke-width:1.0;"/><text fill="#000000" font-family="sans-serif" font-size="13" lengthAdjust="spacing" textLength="108" x="2382" y="147.0669">choosing add QR</text></g><!--link ScannedBarcodeActivity to ScanFailMsg--><g id="link_ScannedBarcodeActivity_ScanFailMsg"><path codeLine="178" d="M1578.71,636.06 C1619.84,744.755 1665.26,864.82 1689.16,927.985 " fill="none" id="ScannedBarcodeActivity-to-ScanFailMsg" style="stroke:#181818;stroke-width:1.0;"/><polygon fill="#181818" points="1690.98,932.805,1691.5316,922.9716,1689.2084,928.1294,1684.0506,925.8061,1690.98,932.805" style="stroke:#181818;stroke-width:1.0;"/><text fill="#000000" font-family="sans-serif" font-size="13" lengthAdjust="spacing" textLength="74" x="1595" y="679.0669">no qr found</text></g><!--link ScannedBarcodeActivity to TestAct--><g id="link_ScannedBarcodeActivity_TestAct"><path codeLine="179" d="M1288.17,636.06 C1244.37,684.503 1198.53,735.205 1156.12,782.121 " fill="none" id="ScannedBarcodeActivity-to-TestAct" style="stroke:#181818;stroke-width:1.0;"/><polygon fill="#181818" points="1152.55,786.069,1161.5498,782.0686,1155.9003,782.3575,1155.6114,776.708,1152.55,786.069" style="stroke:#181818;stroke-width:1.0;"/><text fill="#000000" font-family="sans-serif" font-size="13" lengthAdjust="spacing" textLength="88" x="1255" y="679.0669">valid qr found</text></g><!--link MainActivity to MapsActivity--><g id="link_MainActivity_MapsActivity"><path codeLine="180" d="M2488.86,60.92 C2018.56,73.69 746.207,114.05 569,181 C501.001,206.69 436.157,254.29 385.099,299.25 " fill="none" id="MainActivity-to-MapsActivity" style="stroke:#181818;stroke-width:1.0;"/><polygon fill="#181818" points="381.136,302.76,390.5258,299.7882,384.8793,299.4453,385.2222,293.7988,381.136,302.76" style="stroke:#181818;stroke-width:1.0;"/><text fill="#000000" font-family="sans-serif" font-size="13" lengthAdjust="spacing" textLength="90" x="872" y="147.0669">choosing map</text></g><!--link CollectionActivity to QRCodeActivity--><g id="link_CollectionActivity_QRCodeActivity"><path codeLine="181" d="M3373,1038.323 C3373,1111.344 3373,1230.484 3373,1305.575 " fill="none" id="CollectionActivity-to-QRCodeActivity" style="stroke:#181818;stroke-width:1.0;"/><polygon fill="#181818" points="3373,1310.904,3377,1301.904,3373,1305.904,3369,1301.904,3373,1310.904" style="stroke:#181818;stroke-width:1.0;"/><text fill="#000000" font-family="sans-serif" font-size="13" lengthAdjust="spacing" textLength="91" x="3374" y="1277.0669">specify qr info</text></g><!--link QRCodeActivity to CommentActivity--><g id="link_QRCodeActivity_CommentActivity"><path codeLine="182" d="M3373,1440.136 C3373,1463.102 3373,1488.951 3373,1511.671 " fill="none" id="QRCodeActivity-to-CommentActivity" style="stroke:#181818;stroke-width:1.0;"/><polygon fill="#181818" points="3373,1516.77,3377,1507.77,3373,1511.77,3369,1507.77,3373,1516.77" style="stroke:#181818;stroke-width:1.0;"/><text fill="#000000" font-family="sans-serif" font-size="13" lengthAdjust="spacing" textLength="97" x="3374" y="1483.0669">add comments</text></g><!--link MainActivity to SearchActivity--><g id="link_MainActivity_SearchActivity"><path codeLine="183" d="M2641.8,104.2 C2611.49,172.39 2556.21,296.79 2526.73,363.1 " fill="none" id="MainActivity-to-SearchActivity" style="stroke:#181818;stroke-width:1.0;"/><polygon fill="#181818" points="2524.66,367.77,2531.9667,361.166,2526.688,363.1998,2524.6543,357.9211,2524.66,367.77" style="stroke:#181818;stroke-width:1.0;"/><text fill="#000000" font-family="sans-serif" font-size="13" lengthAdjust="spacing" textLength="104" x="2627" y="147.0669">choosing search</text></g><!--link SearchActivity to SearchGeoActivity--><g id="link_SearchActivity_SearchGeoActivity"><path codeLine="184" d="M2504.54,449.09 C2498.05,553.47 2480.54,835.069 2474.27,935.935 " fill="none" id="SearchActivity-to-SearchGeoActivity" style="stroke:#181818;stroke-width:1.0;"/><polygon fill="#181818" points="2473.95,941.174,2478.5008,932.4396,2474.2603,936.1836,2470.5162,931.9431,2473.95,941.174" style="stroke:#181818;stroke-width:1.0;"/><text fill="#000000" font-family="sans-serif" font-size="13" lengthAdjust="spacing" textLength="117" x="2492" y="679.0669">search by location</text></g><!--link SearchActivity to SearchFriendActivity--><g id="link_SearchActivity_SearchFriendActivity"><path codeLine="185" d="M2477.16,449.2 C2433.66,507.1 2350.38,618.15 2280,713 C2220.67,792.964 2151.51,887.183 2114.87,937.176 " fill="none" id="SearchActivity-to-SearchFriendActivity" style="stroke:#181818;stroke-width:1.0;"/><polygon fill="#181818" points="2111.86,941.286,2120.4079,936.3938,2114.8168,937.254,2113.9567,931.6629,2111.86,941.286" style="stroke:#181818;stroke-width:1.0;"/><text fill="#000000" font-family="sans-serif" font-size="13" lengthAdjust="spacing" textLength="119" x="2312" y="679.0669">search by friend id</text></g><!--link SearchFriendsActivity to FriendPageActivity--><g id="link_SearchFriendsActivity_FriendPageActivity"><path codeLine="186" d="M3773.62,79.53 C3750.21,136.99 3688.91,287.45 3658.15,362.95 " fill="none" id="SearchFriendsActivity-to-FriendPageActivity" style="stroke:#181818;stroke-width:1.0;"/><polygon fill="#181818" points="3656.17,367.81,3663.27,360.9844,3658.0565,363.1795,3655.8613,357.966,3656.17,367.81" style="stroke:#181818;stroke-width:1.0;"/><text fill="#000000" font-family="sans-serif" font-size="13" lengthAdjust="spacing" textLength="81" x="3749" y="147.0669">friend profile</text></g><!--link FriendPageActivity to CollectionActivity--><g id="link_FriendPageActivity_CollectionActivity"><path codeLine="187" d="M3621.23,449.09 C3576.22,543.98 3461.76,785.333 3405.38,904.214 " fill="none" id="FriendPageActivity-to-CollectionActivity" style="stroke:#181818;stroke-width:1.0;"/><polygon fill="#181818" points="3403.24,908.738,3410.7113,902.3209,3405.383,904.2205,3403.4833,898.8921,3403.24,908.738" style="stroke:#181818;stroke-width:1.0;"/><text fill="#000000" font-family="sans-serif" font-size="13" lengthAdjust="spacing" textLength="219" x="3516" y="679.0669">without modification authorization</text></g><!--SRC=[jHZRRjisz5rVGRGloc8NnO3jeIW2E8xJ6h0RHtO234KHq19jSv55XQHoQPiVsRVid_OBEuVKXRGjDycwFCJcuRdVQNNDivnAkYPnIfNgQItvlD1i68jiohyoyZO83ljuHSwZM2JiMz0jP4hUaIbWPikWUoFx01vU0cYufajsoTaTGZ_HDVFGBYFdE8s5n6kUwQ2RKirraRZegSYMcp2ExE5ypFMQvi3ZO-_Nttvl40wNJ5jOUE10hTxXHJIgWHsoI-k3dRW0LKmRf5j0Cgnl1K-CE1_Ss8yarWK-lWEhr0FCS_2DZrT372pZCWTDUTPQ64JjbiaIDGPmlAAoGrBhwOFIuLQJXby5Mr6rQW30VoHY28t8GeYGupm8JdqYdjwZCfAUxWYlmhbfb75Pw4TssyEEXLgCQMxE7q5R-Fw-qkfi_YUBzL7mM2LiNwGfG43_7lo_vVe1alURqg1Z_4YYmVd5O3gpngvebgHC6gxcM_1QP7t9g6QXehSi6MP0byLi2jH6qmBHQhLUDp8YfefKXvBT54nfp3Bhq0wHviQ595HJp9jCCupEFt__POqiShXX9t0xfyfQFwFg-lqbt7e6hjT0s5YNp07pb4k6PFYfDCGuk64HMy1Dun0uCyd0dcVQUKYJP2Ok59Ebx8PbU2DRfNG8J-2cIg3OqZObLbl-M7URKybPbamW-8rvpzHrlnSRDuufptxemsVANZ0Thz1FOKxrgh6ql7Tavyh9pZMS0Vc34CkKZR79BRSWSvubM7ZlI4M8J8uj53kdhTanpS1vcD8Z7_AJB4H-USHeyX0kA-LSHRsSwQNfUQIUW3Ycyfh9C-Iz6njRDzf4zGYBNZLpXBYjaSfuzO69qBQgH1Jp5BBGjZ5xQj0XwSpVeHc1P1hJx9JoTAoMpqsvBi-unW6Wwev5CDPnEK2nzdzShUrr5616jTygQH9DI0ZpIolyqNL3nf9ZyAIdTTD1X-FUXy5LlpUPNKJmUNOoiCrK5N91OpC8KP_c5EXxNVAxf6c1qcVitZWic5lu2TDWbK13Zdr84CFab7Gg2XaZPTyvRhTrK6iyY7fNaq4q7awdmxDFvLYRQrFh9YsE2wr5XY0qjW5mquzFR7CkXnLNWpKanJio5o9b591mC5qLaWFEXUJ_8LFgYifPPgqAtJABx2IPCBdcIe7cgdt4v0rIhVhdBnsob3JJbanPtCzV3dxgx7BjuZJbgWwSwcM93LDJ5IXqGWl5F0YATpUcryjgwobt3So7QZyvS0eMK8u5bSd_D2gQcZ1zvQLITiHyWxCTUY_bly4Csj_BELMiPf07mELRi81W9TKacKXnonDO0b9kv_Xf-wrJc-C_hkhoX6vH1d8w60twiwl9i8zzf7eJxEao9Sfc0RQqqs9loxnvTZkzct1ShCisyFbBS0TsUm0DaW5WtnBFpP45JzCHLStgVHxLlDoky1DBjiXJGPF9IcWHmckmqBYEMOaTWlw58pZOR6ab2HJcu1wuOAS9wn0ukttNMHJh3N5lA3eaSr-Ci38QLRPijvnnbZvjytmYLw_vreRM9OMMlBIQR6VJLEhmgHtdq8s9LTLgta4_Or2sgxwNvx2KmxhPw5dVdK8E-qy5kC8nPsOpEQjtkJvDqpcDhn5X-_r4kjtlHzk20dU3RiTfDbsBiwcKZ_86CBRr2fpjh4NGxiLb3_AqY64sgNqSDmTC6w8t7_OYsLQlVe1Rjj-MMpSfMr22CdbUlNtpvfTNH7IhRoNdO3DsHrwgcryGX50uV7Cfe3cnRO8TUUAGnVMjfsyx9SEqTCZ8Gefrk_JTuNOrW8O1vTwI5pMFCgc0C1FunbW8gE9zHAK7iGvXtqaQcYqLlRns5CDViNOMsT76Mm68LCvYldX0AJnRY603mNhJ-pa0YD3oyh6jTdZEorPNCVj-saXdXyPPBL0r0oFp1rAzFTif_Gt7fLsO6m8TRMU161xRFmg0-9AmIf0TEAsfTiVrIi0uM8k4BxZLdT02W99_DQT_0G00]--></g></svg>